# xmcd CD database file
#
# Track frame offsets:
#	150
#	27005
#	50679
#	78494
#	109893
#	139026
#	169958
#	197210
#	223124
#
# Disc length: 3392 seconds
#
# Revision: 0
# Processed by: cddbd v1.5PL3 Copyright (c) Steve Scherf et al.
# Submitted via: CDex 1.51
#
DISCID=820d3e09
DTITLE=Dan Gibson - Solitudes - Garden In Provence
DYEAR=2001
DGENRE=New Age
TTITLE0=Sunrise in Provence
TTITLE1=Poppies
TTITLE2=Water Lilly Pond
TTITLE3=Under the Poplars
TTITLE4=A Quiet Cove
TTITLE5=The Row Boat
TTITLE6=Misty Morning
TTITLE7=The Freshness of Rain
TTITLE8=Beyond the Garden Gate
EXTD=YEAR: 2001
EXTT0=
EXTT1=
EXTT2=
EXTT3=
EXTT4=
EXTT5=
EXTT6=
EXTT7=
EXTT8=
PLAYORDER=
